<svg xmlns="http://www.w3.org/2000/svg" version="1.1" xmlns:xlink="http://www.w3.org/1999/xlink" xmlns:svgjs="http://svgjs.dev/svgjs" width="2000" height="823" viewBox="0 0 2000 823"><g transform="matrix(1,0,0,1,-1.2121212121213603,-1.4105536359211328)"><svg viewBox="0 0 396 163" data-background-color="#efefef" preserveAspectRatio="xMidYMid meet" height="823" width="2000" xmlns="http://www.w3.org/2000/svg" xmlns:xlink="http://www.w3.org/1999/xlink"><g id="tight-bounds" transform="matrix(1,0,0,1,0.24000000000003752,0.27936846009130534)"><svg viewBox="0 0 395.5199999999999 162.4412630798174" height="162.4412630798174" width="395.5199999999999"><g><svg viewBox="0 0 395.5199999999999 162.4412630798174" height="162.4412630798174" width="395.5199999999999"><g><svg viewBox="0 0 395.5199999999999 162.4412630798174" height="162.4412630798174" width="395.5199999999999"><g id="textblocktransform"><svg viewBox="0 0 395.5199999999999 162.4412630798174" height="162.4412630798174" width="395.5199999999999" id="textblock"><g><svg viewBox="0 0 395.5199999999999 102.01008822003114" height="102.01008822003114" width="395.5199999999999"><g transform="matrix(1,0,0,1,0,0)"><svg width="395.5199999999999" viewBox="0 -38.7 192.68 49.7" height="102.01008822003114" data-palette-color="#d94e28"><g class="wordmark-text-0" data-fill-palette-color="primary" id="text-0"><path d="M8.85-29.45L0-28.75 0.55-34.5 24.3-34.5 23.75-28.75 15.05-29.5 14.85-13 15.45 0 8.45 0 9.05-12.15 8.85-29.45ZM34.35 11L27.9 9.65 33.05-1.9 29.35-12 24.3-24.15 30.95-25.4 34.15-14.75 35.8-9.7 36.45-9.7 37.65-13.35 41.25-25.45 47.4-24.7 38.55-1.45 34.35 11ZM63.8-25.25L63.8-25.25Q67-25.25 69.17-22.45 71.34-19.65 71.34-14.9L71.34-14.9Q71.34-8.25 67.92-4.13 64.5 0 59.4 0L59.4 0Q58.34 0 57.05-0.15L57.05-0.15 57.3 9.4 50.45 10.65 51.09-12.15 51.15-12.15Q50.95-18.85 50.05-24.15L50.05-24.15 56.09-25.45Q56.4-22.8 56.59-20.2L56.59-20.2Q56.7-20.45 57.62-21.58 58.55-22.7 60.34-23.98 62.15-25.25 63.8-25.25ZM61.84-18.75L61.84-18.75Q59.2-18.75 56.7-17.3L56.7-17.3 56.7-13 56.9-5.85Q59.59-5.4 61-5.4L61-5.4Q65.8-5.4 65.8-12.08 65.8-18.75 61.84-18.75ZM84.49-5.1L84.49-5.1Q85.94-5.1 87.54-5.85 89.14-6.6 90.04-7.35L90.04-7.35 90.94-8.1 93.24-5.3Q92.74-4.45 91.69-3.35 90.64-2.25 89.57-1.48 88.49-0.7 86.72-0.08 84.94 0.55 83.04 0.55L83.04 0.55Q78.99 0.55 76.44-2.53 73.89-5.6 73.89-10.45L73.89-10.45Q73.89-16.55 77.44-21.15 80.99-25.75 85.74-25.75L85.74-25.75Q89.39-25.75 91.42-23.7 93.44-21.65 93.44-17.95L93.44-17.95Q93.44-15.75 92.69-12.95L92.69-12.95 91.69-11.9 79.19-10.75Q80.04-5.1 84.49-5.1ZM84.49-20.6L84.49-20.6Q82.29-20.6 80.79-18.82 79.29-17.05 79.04-14.3L79.04-14.3 87.54-15.35Q87.69-16.5 87.69-17.25L87.69-17.25Q87.69-20.6 84.49-20.6ZM107.84-13.3L107.84-13.3 104.99-13.3 104.99-13 105.59 0 98.89 0 99.49-12.15 98.89-34.5 109.74-34.5Q114.54-34.5 117.39-31.9 120.24-29.3 120.24-25L120.24-25Q120.24-21.75 118.56-19.07 116.89-16.4 114.04-14.85L114.04-14.85 122.74-2.55 116.69 0.55 108.89-13.35Q108.54-13.3 107.84-13.3ZM107.94-29.45L107.94-29.45 105.49-29.45 105.14-18.15 108.54-18.15Q111.04-18.15 112.42-19.8 113.79-21.45 113.79-24.5L113.79-24.5Q113.79-29.45 107.94-29.45ZM132.74 0L132.74 0Q130.04 0 128.36-1.78 126.69-3.55 126.69-6.45L126.69-6.45 126.99-12.2 126.44-24.2 133.14-25.45 132.49-10.25Q132.49-8.1 133.26-7.1 134.04-6.1 135.74-6.1 137.44-6.1 140.44-7.8L140.44-7.8 140.44-10.8 139.89-23.95 146.64-25.2 146.04-12.7 146.09-8.6Q146.09-5.4 147.74-2.15L147.74-2.15 142.54 0.15Q140.89-3.1 140.54-5.05L140.54-5.05Q136.04 0 132.74 0ZM159.78-4.65L159.78-4.65Q162.39-4.65 162.39-6.95L162.39-6.95Q162.39-7.75 161.26-8.45 160.14-9.15 158.51-9.85 156.89-10.55 155.26-11.43 153.64-12.3 152.51-13.85 151.39-15.4 151.39-17.4L151.39-17.4Q151.39-20.75 154.34-23.25 157.28-25.75 161.14-25.75L161.14-25.75Q162.94-25.75 164.66-25.33 166.39-24.9 167.99-24L167.99-24 164.64-17.9Q164.28-18.2 163.74-18.65 163.19-19.1 161.66-19.83 160.14-20.55 158.96-20.55 157.78-20.55 157.16-20.03 156.53-19.5 156.53-18.57 156.53-17.65 158.26-16.73 159.99-15.8 162.03-15.03 164.09-14.25 165.81-12.48 167.53-10.7 167.53-8.25L167.53-8.25Q167.53-4.75 164.66-2.1 161.78 0.55 158.03 0.55L158.03 0.55Q155.64 0.55 153.56-0.5 151.49-1.55 150.59-2.6L150.59-2.6 149.69-3.65 153.64-8.25Q153.94-7.85 154.49-7.25 155.03-6.65 156.66-5.65 158.28-4.65 159.78-4.65ZM186.53-12.65Q186.53-16.1 185.93-17.25 185.33-18.4 183.13-18.4 180.93-18.4 178.13-16.65L178.13-16.65 178.13-13 178.68-1.25 171.93 0 172.53-12.15 171.93-37.45 178.78-38.7 178.13-25.75 178.13-19.9Q178.88-20.9 179.83-21.85 180.78-22.8 182.78-24 184.78-25.2 187.06-25.2 189.33-25.2 190.88-23.43 192.43-21.65 192.43-18.6L192.43-18.6 192.13-13 192.68-1 185.93 0.25 186.53-12.65Z" fill="#d94e28" data-fill-palette-color="primary"></path></g></svg></g></svg></g><g transform="matrix(1,0,0,1,0,126.0922218066632)"><svg viewBox="0 0 232.20979199999994 36.349041273154185" height="36.349041273154185" width="232.20979199999994"><g transform="matrix(1,0,0,1,0,0)"><svg width="232.20979199999994" viewBox="4.38 -31.25 266.15 41.67" height="36.349041273154185" data-palette-color="#d94e28"><path d="M19.17 0L4.38 0 4.38-31.25 8.33-31.25 8.33-3.54 19.17-3.54 19.17 0ZM34.09 0.42L34.09 0.42Q30.83 0.42 28.24-1.04 25.66-2.5 24.18-5.02 22.71-7.53 22.71-10.63L22.71-10.63Q22.71-13.58 24.13-15.99 25.55-18.4 27.97-19.83 30.38-21.25 33.3-21.25L33.3-21.25Q36.18-21.25 38.57-19.88 40.97-18.51 42.39-16.18 43.82-13.85 43.82-10.9L43.82-10.9 43.82-9.38 30.21-9.38Q29.3-9.38 28.37-9.44 27.43-9.51 26.53-9.65L26.53-9.65Q26.91-6.88 29.04-5 31.18-3.13 34.13-3.13L34.13-3.13Q36.11-3.13 37.81-4.03 39.51-4.93 40.55-6.42L40.55-6.42 41.59-2.15Q40.1-0.94 38.17-0.26 36.25 0.42 34.09 0.42ZM26.42-12.19L26.42-12.19Q28.3-12.5 30.21-12.5L30.21-12.5 37.12-12.5Q37.88-12.5 38.63-12.45 39.37-12.4 40.14-12.33L40.14-12.33Q39.65-14.76 37.71-16.34 35.76-17.92 33.3-17.92L33.3-17.92Q30.76-17.92 28.85-16.23 26.94-14.55 26.42-12.19ZM57.74 0.28L57.74 0.28Q54.89 0.28 52.53-1.16 50.17-2.6 48.76-5.03 47.36-7.47 47.36-10.42L47.36-10.42Q47.36-13.37 48.76-15.8 50.17-18.23 52.53-19.67 54.89-21.11 57.74-21.11L57.74-21.11Q59.89-21.11 61.78-20.31 63.68-19.51 65.06-18.09L65.06-18.09 65.06-20.83 68.54-20.83 68.54 0 65.06 0 65.06-2.74Q63.68-1.35 61.78-0.54 59.89 0.28 57.74 0.28ZM58.22-3.13L58.22-3.13Q60.2-3.13 61.82-4.11 63.43-5.1 64.39-6.75 65.34-8.4 65.34-10.42L65.34-10.42Q65.34-12.43 64.39-14.08 63.43-15.73 61.82-16.72 60.2-17.71 58.22-17.71L58.22-17.71Q56.25-17.71 54.63-16.72 53.02-15.73 52.06-14.08 51.11-12.43 51.11-10.42L51.11-10.42Q51.11-8.4 52.06-6.75 53.02-5.1 54.63-4.11 56.25-3.13 58.22-3.13ZM78.95 0L75.2 0 75.2-20.83 78.67-20.83 78.67-17.01Q79.78-18.85 81.62-19.95 83.46-21.04 86-21.04L86-21.04 86.94-17.29Q86.28-17.5 85.41-17.5L85.41-17.5Q82.49-17.5 80.72-15.64 78.95-13.78 78.95-10.35L78.95-10.35 78.95 0ZM94.57 0L90.82 0 90.82-20.83 94.3-20.83 94.3-17.47Q95.44-19.31 97.26-20.28 99.09-21.25 101.21-21.25L101.21-21.25Q103.43-21.25 105.32-20.16 107.21-19.06 108.39-17 109.57-14.93 109.57-11.98L109.57-11.98 109.57 0 105.82 0 105.82-11.46Q105.82-13.92 104.35-15.82 102.87-17.71 100.2-17.71L100.2-17.71Q98.01-17.71 96.29-16.13 94.57-14.55 94.57-11.56L94.57-11.56 94.57 0ZM132.42 0L128.67 0 128.67-17.71 123.94-17.71 123.94-20.83 128.77-20.83 128.77-27.78 132.31-27.78 132.31-20.83 137.49-20.83 137.49-17.71 132.42-17.71 132.42 0ZM151.37 0.42L151.37 0.42Q148.35 0.42 145.85-1.04 143.35-2.5 141.87-4.97 140.4-7.43 140.4-10.42L140.4-10.42Q140.4-13.44 141.87-15.89 143.35-18.33 145.85-19.79 148.35-21.25 151.37-21.25L151.37-21.25Q154.43-21.25 156.91-19.79 159.39-18.33 160.87-15.89 162.34-13.44 162.34-10.42L162.34-10.42Q162.34-7.43 160.87-4.97 159.39-2.5 156.91-1.04 154.43 0.42 151.37 0.42ZM151.37-3.13L151.37-3.13Q153.39-3.13 155.02-4.11 156.65-5.1 157.62-6.75 158.59-8.4 158.59-10.42L158.59-10.42Q158.59-12.43 157.62-14.08 156.65-15.73 155.02-16.72 153.39-17.71 151.37-17.71L151.37-17.71Q149.36-17.71 147.73-16.72 146.09-15.73 145.12-14.08 144.15-12.43 144.15-10.42L144.15-10.42Q144.15-8.4 145.12-6.75 146.09-5.1 147.73-4.11 149.36-3.13 151.37-3.13ZM184.63-27.71L176.3-27.71 176.3-31.25 196.92-31.25 196.92-27.71 188.59-27.71 188.59 0 184.63 0 184.63-27.71ZM205.11 10.42L201.05 10.42 207.82-3.06 199-20.83 203.24-20.83 207.68-11.81Q208.27-10.59 208.83-9.41 209.38-8.23 209.94-6.56L209.94-6.56Q210.53-8.23 211.07-9.43 211.61-10.63 212.23-11.81L212.23-11.81 216.75-20.83 220.74-20.83 205.11 10.42ZM228.24 10.42L224.49 10.42 224.49-20.83 227.96-20.83 227.96-18.09Q229.38-19.51 231.26-20.31 233.13-21.11 235.29-21.11L235.29-21.11Q238.17-21.11 240.51-19.67 242.85-18.23 244.26-15.8 245.67-13.37 245.67-10.42L245.67-10.42Q245.67-7.47 244.26-5.03 242.85-2.6 240.51-1.16 238.17 0.28 235.29 0.28L235.29 0.28Q233.24 0.28 231.43-0.45 229.63-1.18 228.24-2.47L228.24-2.47 228.24 10.42ZM234.8-3.13L234.8-3.13Q236.78-3.13 238.39-4.11 240.01-5.1 240.96-6.75 241.92-8.4 241.92-10.42L241.92-10.42Q241.92-12.43 240.96-14.08 240.01-15.73 238.39-16.72 236.78-17.71 234.8-17.71L234.8-17.71Q232.82-17.71 231.21-16.72 229.59-15.73 228.64-14.08 227.68-12.43 227.68-10.42L227.68-10.42Q227.68-8.4 228.64-6.75 229.59-5.1 231.21-4.11 232.82-3.13 234.8-3.13ZM260.8 0.42L260.8 0.42Q257.54 0.42 254.95-1.04 252.37-2.5 250.89-5.02 249.41-7.53 249.41-10.63L249.41-10.63Q249.41-13.58 250.84-15.99 252.26-18.4 254.67-19.83 257.09-21.25 260-21.25L260-21.25Q262.89-21.25 265.28-19.88 267.68-18.51 269.1-16.18 270.53-13.85 270.53-10.9L270.53-10.9 270.53-9.38 256.91-9.38Q256.01-9.38 255.07-9.44 254.14-9.51 253.23-9.65L253.23-9.65Q253.62-6.88 255.75-5 257.89-3.13 260.84-3.13L260.84-3.13Q262.82-3.13 264.52-4.03 266.22-4.93 267.26-6.42L267.26-6.42 268.3-2.15Q266.81-0.94 264.88-0.26 262.96 0.42 260.8 0.42ZM253.13-12.19L253.13-12.19Q255-12.5 256.91-12.5L256.91-12.5 263.82-12.5Q264.59-12.5 265.33-12.45 266.08-12.4 266.85-12.33L266.85-12.33Q266.36-14.76 264.41-16.34 262.47-17.92 260-17.92L260-17.92Q257.47-17.92 255.56-16.23 253.65-14.55 253.13-12.19Z" opacity="1" transform="matrix(1,0,0,1,0,0)" fill="#d94e28" class="slogan-text-1" data-fill-palette-color="secondary" id="text-1"></path></svg></g></svg></g></svg></g></svg></g></svg></g><defs></defs></svg><rect width="395.5199999999999" height="162.4412630798174" fill="none" stroke="none" visibility="hidden"></rect></g></svg></g></svg>